<svg width="1021" height="155" viewBox="0 0 1021 155" fill="none" xmlns="http://www.w3.org/2000/svg">
<path d="M33.9014 5H1V150H152V119.403H33.9014V5Z" stroke="#13FF00"/>
<path d="M334.327 1C269.824 1 224 31.3791 224 77.1307C224 126.179 265.785 154 334.689 154C405.431 154 445 123.258 445 77.1307C445 31.4208 398.829 1 334.327 1ZM334.689 122.521C285.94 122.521 258.459 106.051 258.459 77.1307C258.459 50.4086 288.878 32.4786 334.327 32.4786C380.137 32.4786 410.557 50.4086 410.557 77.1307C410.557 106.092 383.062 122.562 334.689 122.562V122.521Z" stroke="#13FF00"/>
<path d="M687.975 77.3078C687.975 106.161 664.86 122.592 623.413 122.592C580.865 122.592 557.013 106.161 557.013 77.3078V5H524V77.3078C524 126.243 559.954 154 623.413 154C685.771 154 721 126.243 721 77.3078V5H687.989L687.975 77.3078Z" stroke="#13FF00"/>
<path d="M857.925 5H825V150H857.925L1020 98.2752V59.6604L857.925 5ZM985.602 80.041L857.925 115.747V39.2392L985.602 77.8541V80.041Z" stroke="#13FF00"/>
</svg>
